<mxfile host="app.diagrams.net" agent="Mozilla/5.0 (Windows NT 10.0; Win64; x64) AppleWebKit/537.36 (KHTML, like Gecko) Chrome/135.0.0.0 Safari/537.36" version="26.1.0">
  <diagram name="第 1 页" id="vlklsTBlypKbauxS6bGd">
    <mxGraphModel dx="2901" dy="1098" grid="1" gridSize="10" guides="1" tooltips="1" connect="1" arrows="1" fold="1" page="1" pageScale="1" pageWidth="827" pageHeight="1169" math="0" shadow="0">
      <root>
        <mxCell id="0" />
        <mxCell id="1" parent="0" />
        <mxCell id="Mn6TFEwCehOoePPqHeMJ-1" value="" style="html=1;aspect=fixed;points=[[0,0,0,0,0],[0,0.25,0,0,0],[0,0.5,0,0,0],[0,0.75,0,0,0],[0,1,0,0,0],[0.25,0,0,0,0],[0.25,1,0,0,0],[0.5,0,0,0,0],[0.5,1,0,0,0],[0.75,0,0,0,0],[0.75,1,0,0,0],[1,0,0,0,0],[1,0.25,0,0,0],[1,0.5,0,0,0],[1,0.75,0,0,0],[1,1,0,0,0]];fontSize=16;labelBackgroundColor=none;whiteSpace=wrap;" vertex="1" parent="1">
          <mxGeometry x="-390" y="485" width="615" height="615" as="geometry" />
        </mxCell>
        <mxCell id="Mn6TFEwCehOoePPqHeMJ-56" style="edgeStyle=orthogonalEdgeStyle;rounded=0;orthogonalLoop=1;jettySize=auto;html=1;exitX=0;exitY=0.25;exitDx=0;exitDy=0;entryX=0.5;entryY=0;entryDx=0;entryDy=0;fontSize=16;labelBackgroundColor=none;" edge="1" parent="1" source="Mn6TFEwCehOoePPqHeMJ-2" target="Mn6TFEwCehOoePPqHeMJ-55">
          <mxGeometry relative="1" as="geometry" />
        </mxCell>
        <mxCell id="Mn6TFEwCehOoePPqHeMJ-2" value="&lt;div&gt;&lt;br&gt;&lt;/div&gt;" style="html=1;aspect=fixed;points=[[0,0,0,0,0],[0,0.25,0,0,0],[0,0.5,0,0,0],[0,0.75,0,0,0],[0,1,0,0,0],[0.25,0,0,0,0],[0.25,1,0,0,0],[0.5,0,0,0,0],[0.5,1,0,0,0],[0.75,0,0,0,0],[0.75,1,0,0,0],[1,0,0,0,0],[1,0.25,0,0,0],[1,0.5,0,0,0],[1,0.75,0,0,0],[1,1,0,0,0]];fontSize=16;labelBackgroundColor=none;whiteSpace=wrap;" vertex="1" parent="1">
          <mxGeometry x="750" y="280" width="610" height="610" as="geometry" />
        </mxCell>
        <mxCell id="Mn6TFEwCehOoePPqHeMJ-120" style="edgeStyle=none;rounded=0;orthogonalLoop=1;jettySize=auto;html=1;exitX=1;exitY=0.75;exitDx=0;exitDy=0;entryX=0;entryY=0.25;entryDx=0;entryDy=0;fontSize=16;labelBackgroundColor=none;" edge="1" parent="1" source="Mn6TFEwCehOoePPqHeMJ-3" target="Mn6TFEwCehOoePPqHeMJ-113">
          <mxGeometry relative="1" as="geometry" />
        </mxCell>
        <mxCell id="Mn6TFEwCehOoePPqHeMJ-3" value="Anchor" style="rounded=0;html=1;fontSize=16;labelBackgroundColor=none;whiteSpace=wrap;" vertex="1" parent="1">
          <mxGeometry x="770" y="300" width="150" height="30" as="geometry" />
        </mxCell>
        <mxCell id="Mn6TFEwCehOoePPqHeMJ-12" value="Live Main Process" style="rounded=0;html=1;fontSize=16;labelBackgroundColor=none;whiteSpace=wrap;" vertex="1" parent="1">
          <mxGeometry x="770" y="640" width="570" height="230" as="geometry" />
        </mxCell>
        <mxCell id="Mn6TFEwCehOoePPqHeMJ-13" value="Auth" style="rounded=0;html=1;fontSize=16;labelBackgroundColor=none;whiteSpace=wrap;" vertex="1" parent="1">
          <mxGeometry x="780" y="660" width="190" height="30" as="geometry" />
        </mxCell>
        <mxCell id="Mn6TFEwCehOoePPqHeMJ-14" value="Start Game" style="rounded=0;html=1;fontSize=16;labelBackgroundColor=none;whiteSpace=wrap;" vertex="1" parent="1">
          <mxGeometry x="780" y="700" width="190" height="30" as="geometry" />
        </mxCell>
        <mxCell id="Mn6TFEwCehOoePPqHeMJ-41" style="edgeStyle=orthogonalEdgeStyle;rounded=0;orthogonalLoop=1;jettySize=auto;html=1;entryX=0;entryY=0.5;entryDx=0;entryDy=0;fontSize=16;labelBackgroundColor=none;" edge="1" parent="1" source="Mn6TFEwCehOoePPqHeMJ-16" target="Mn6TFEwCehOoePPqHeMJ-14">
          <mxGeometry relative="1" as="geometry" />
        </mxCell>
        <mxCell id="Mn6TFEwCehOoePPqHeMJ-16" value="StartGame" style="text;html=1;align=center;verticalAlign=middle;resizable=0;points=[];autosize=1;strokeColor=none;fillColor=none;fontSize=16;labelBackgroundColor=none;" vertex="1" parent="1">
          <mxGeometry x="424" y="730" width="100" height="30" as="geometry" />
        </mxCell>
        <mxCell id="Mn6TFEwCehOoePPqHeMJ-37" style="edgeStyle=orthogonalEdgeStyle;rounded=0;orthogonalLoop=1;jettySize=auto;html=1;fontSize=16;labelBackgroundColor=none;" edge="1" parent="1" source="Mn6TFEwCehOoePPqHeMJ-25" target="Mn6TFEwCehOoePPqHeMJ-13">
          <mxGeometry relative="1" as="geometry" />
        </mxCell>
        <mxCell id="Mn6TFEwCehOoePPqHeMJ-25" value="&amp;nbsp;Auth/MapleInfo/UserInfo" style="text;html=1;align=center;verticalAlign=middle;resizable=0;points=[];autosize=1;strokeColor=none;fillColor=none;fontSize=16;labelBackgroundColor=none;" vertex="1" parent="1">
          <mxGeometry x="374" y="610" width="200" height="30" as="geometry" />
        </mxCell>
        <mxCell id="Mn6TFEwCehOoePPqHeMJ-30" value="SDK&lt;div&gt;&lt;br&gt;&lt;/div&gt;" style="text;html=1;align=center;verticalAlign=middle;resizable=0;points=[];autosize=1;strokeColor=none;fillColor=none;fontSize=16;labelBackgroundColor=none;" vertex="1" parent="1">
          <mxGeometry x="185" y="395" width="60" height="50" as="geometry" />
        </mxCell>
        <mxCell id="Mn6TFEwCehOoePPqHeMJ-35" value="Launcher Register" style="text;html=1;align=center;verticalAlign=middle;resizable=0;points=[];autosize=1;strokeColor=none;fillColor=none;fontSize=16;labelBackgroundColor=none;" vertex="1" parent="1">
          <mxGeometry x="595" y="580" width="150" height="30" as="geometry" />
        </mxCell>
        <mxCell id="Mn6TFEwCehOoePPqHeMJ-40" value="SDK invoke" style="text;html=1;align=center;verticalAlign=middle;resizable=0;points=[];autosize=1;strokeColor=none;fillColor=none;fontSize=16;labelBackgroundColor=none;" vertex="1" parent="1">
          <mxGeometry x="260" y="590" width="110" height="30" as="geometry" />
        </mxCell>
        <mxCell id="Mn6TFEwCehOoePPqHeMJ-44" value="Launcher Register" style="text;html=1;align=center;verticalAlign=middle;resizable=0;points=[];autosize=1;strokeColor=none;fillColor=none;fontSize=16;labelBackgroundColor=none;" vertex="1" parent="1">
          <mxGeometry x="605" y="680" width="150" height="30" as="geometry" />
        </mxCell>
        <mxCell id="Mn6TFEwCehOoePPqHeMJ-45" value="SDK invoke" style="text;html=1;align=center;verticalAlign=middle;resizable=0;points=[];autosize=1;strokeColor=none;fillColor=none;fontSize=16;labelBackgroundColor=none;" vertex="1" parent="1">
          <mxGeometry x="260" y="712.5" width="110" height="30" as="geometry" />
        </mxCell>
        <mxCell id="Mn6TFEwCehOoePPqHeMJ-47" value="Anchor Store" style="rounded=0;html=1;fontSize=16;labelBackgroundColor=none;whiteSpace=wrap;" vertex="1" parent="1">
          <mxGeometry x="1125" y="310" width="195" height="30" as="geometry" />
        </mxCell>
        <mxCell id="Mn6TFEwCehOoePPqHeMJ-48" value="LiveSetting Store" style="rounded=0;html=1;fontSize=16;labelBackgroundColor=none;whiteSpace=wrap;" vertex="1" parent="1">
          <mxGeometry x="1100" y="405" width="250" height="30" as="geometry" />
        </mxCell>
        <mxCell id="Mn6TFEwCehOoePPqHeMJ-49" value="Room Store" style="rounded=0;html=1;fontSize=16;labelBackgroundColor=none;whiteSpace=wrap;" vertex="1" parent="1">
          <mxGeometry x="1125" y="350" width="195" height="30" as="geometry" />
        </mxCell>
        <mxCell id="Mn6TFEwCehOoePPqHeMJ-50" value="RoomSetting Store" style="rounded=0;html=1;fontSize=16;labelBackgroundColor=none;whiteSpace=wrap;" vertex="1" parent="1">
          <mxGeometry x="1100" y="462.5" width="250" height="30" as="geometry" />
        </mxCell>
        <mxCell id="Mn6TFEwCehOoePPqHeMJ-51" value="Other Store" style="rounded=0;html=1;fontSize=16;labelBackgroundColor=none;whiteSpace=wrap;" vertex="1" parent="1">
          <mxGeometry x="1100" y="520" width="250" height="30" as="geometry" />
        </mxCell>
        <mxCell id="Mn6TFEwCehOoePPqHeMJ-54" value="Main Process (SDK/main)" style="rounded=0;html=1;fontSize=16;labelBackgroundColor=none;whiteSpace=wrap;" vertex="1" parent="1">
          <mxGeometry x="-360" y="510" width="560" height="150" as="geometry" />
        </mxCell>
        <mxCell id="Mn6TFEwCehOoePPqHeMJ-55" value="Renderer Process(Bridge umd)" style="rounded=0;html=1;fontSize=16;labelBackgroundColor=none;whiteSpace=wrap;" vertex="1" parent="1">
          <mxGeometry x="-360" y="680" width="560" height="155" as="geometry" />
        </mxCell>
        <mxCell id="Mn6TFEwCehOoePPqHeMJ-57" value="Launcher" style="text;html=1;align=center;verticalAlign=middle;rounded=0;fontSize=16;labelBackgroundColor=none;whiteSpace=wrap;" vertex="1" parent="1">
          <mxGeometry x="-110" y="930" width="60" height="30" as="geometry" />
        </mxCell>
        <mxCell id="Mn6TFEwCehOoePPqHeMJ-76" style="edgeStyle=orthogonalEdgeStyle;rounded=0;orthogonalLoop=1;jettySize=auto;html=1;entryX=0;entryY=0.5;entryDx=0;entryDy=0;fontSize=16;labelBackgroundColor=none;" edge="1" parent="1" source="Mn6TFEwCehOoePPqHeMJ-59" target="Mn6TFEwCehOoePPqHeMJ-49">
          <mxGeometry relative="1" as="geometry" />
        </mxCell>
        <mxCell id="Mn6TFEwCehOoePPqHeMJ-59" value="Room" style="rounded=0;html=1;fontSize=16;labelBackgroundColor=none;whiteSpace=wrap;" vertex="1" parent="1">
          <mxGeometry x="770" y="350" width="150" height="30" as="geometry" />
        </mxCell>
        <mxCell id="Mn6TFEwCehOoePPqHeMJ-77" style="edgeStyle=orthogonalEdgeStyle;rounded=0;orthogonalLoop=1;jettySize=auto;html=1;entryX=0;entryY=0.5;entryDx=0;entryDy=0;fontSize=16;labelBackgroundColor=none;" edge="1" parent="1" source="Mn6TFEwCehOoePPqHeMJ-60" target="Mn6TFEwCehOoePPqHeMJ-48">
          <mxGeometry relative="1" as="geometry" />
        </mxCell>
        <mxCell id="Mn6TFEwCehOoePPqHeMJ-60" value="LiveSetting" style="rounded=0;html=1;fontSize=16;labelBackgroundColor=none;whiteSpace=wrap;" vertex="1" parent="1">
          <mxGeometry x="770" y="405" width="150" height="30" as="geometry" />
        </mxCell>
        <mxCell id="Mn6TFEwCehOoePPqHeMJ-78" style="edgeStyle=orthogonalEdgeStyle;rounded=0;orthogonalLoop=1;jettySize=auto;html=1;entryX=0;entryY=0.5;entryDx=0;entryDy=0;fontSize=16;labelBackgroundColor=none;" edge="1" parent="1" source="Mn6TFEwCehOoePPqHeMJ-61" target="Mn6TFEwCehOoePPqHeMJ-50">
          <mxGeometry relative="1" as="geometry" />
        </mxCell>
        <mxCell id="Mn6TFEwCehOoePPqHeMJ-61" value="RoomSetting" style="rounded=0;html=1;fontSize=16;labelBackgroundColor=none;whiteSpace=wrap;" vertex="1" parent="1">
          <mxGeometry x="770" y="462.5" width="150" height="30" as="geometry" />
        </mxCell>
        <mxCell id="Mn6TFEwCehOoePPqHeMJ-79" style="edgeStyle=orthogonalEdgeStyle;rounded=0;orthogonalLoop=1;jettySize=auto;html=1;entryX=0;entryY=0.5;entryDx=0;entryDy=0;fontSize=16;labelBackgroundColor=none;" edge="1" parent="1" source="Mn6TFEwCehOoePPqHeMJ-62" target="Mn6TFEwCehOoePPqHeMJ-51">
          <mxGeometry relative="1" as="geometry" />
        </mxCell>
        <mxCell id="Mn6TFEwCehOoePPqHeMJ-62" value="Other..." style="rounded=0;html=1;fontSize=16;labelBackgroundColor=none;whiteSpace=wrap;" vertex="1" parent="1">
          <mxGeometry x="770" y="520" width="150" height="30" as="geometry" />
        </mxCell>
        <mxCell id="Mn6TFEwCehOoePPqHeMJ-65" value="WindowManager" style="rounded=0;html=1;fontSize=16;labelBackgroundColor=none;whiteSpace=wrap;" vertex="1" parent="1">
          <mxGeometry x="780" y="780" width="190" height="35" as="geometry" />
        </mxCell>
        <mxCell id="Mn6TFEwCehOoePPqHeMJ-66" value="TDM" style="rounded=0;html=1;fontSize=16;labelBackgroundColor=none;whiteSpace=wrap;" vertex="1" parent="1">
          <mxGeometry x="1140" y="660" width="180" height="30" as="geometry" />
        </mxCell>
        <mxCell id="Mn6TFEwCehOoePPqHeMJ-68" value="OuterInvoke" style="rounded=0;html=1;fontSize=16;labelBackgroundColor=none;whiteSpace=wrap;" vertex="1" parent="1">
          <mxGeometry x="1140" y="700" width="180" height="32.5" as="geometry" />
        </mxCell>
        <mxCell id="Mn6TFEwCehOoePPqHeMJ-69" value="Config(db)" style="rounded=0;html=1;fontSize=16;labelBackgroundColor=none;whiteSpace=wrap;" vertex="1" parent="1">
          <mxGeometry x="780" y="742.5" width="190" height="30" as="geometry" />
        </mxCell>
        <mxCell id="Mn6TFEwCehOoePPqHeMJ-70" value="GameSDK" style="rounded=0;html=1;fontSize=16;labelBackgroundColor=none;whiteSpace=wrap;" vertex="1" parent="1">
          <mxGeometry x="1140" y="742.5" width="180" height="30" as="geometry" />
        </mxCell>
        <mxCell id="Mn6TFEwCehOoePPqHeMJ-71" value="Roomexe" style="rounded=0;html=1;fontSize=16;labelBackgroundColor=none;whiteSpace=wrap;" vertex="1" parent="1">
          <mxGeometry x="1140" y="780" width="180" height="30" as="geometry" />
        </mxCell>
        <mxCell id="Mn6TFEwCehOoePPqHeMJ-72" value="LiveTools" style="rounded=0;html=1;fontSize=16;labelBackgroundColor=none;whiteSpace=wrap;" vertex="1" parent="1">
          <mxGeometry x="1140" y="825" width="180" height="35" as="geometry" />
        </mxCell>
        <mxCell id="Mn6TFEwCehOoePPqHeMJ-73" value="UserInfo" style="rounded=0;html=1;fontSize=16;labelBackgroundColor=none;whiteSpace=wrap;" vertex="1" parent="1">
          <mxGeometry x="780" y="827.5" width="190" height="30" as="geometry" />
        </mxCell>
        <mxCell id="Mn6TFEwCehOoePPqHeMJ-93" value="Handle" style="text;html=1;align=center;verticalAlign=middle;resizable=0;points=[];autosize=1;strokeColor=none;fillColor=none;fontSize=16;labelBackgroundColor=none;" vertex="1" parent="1">
          <mxGeometry x="1395" y="701.25" width="70" height="30" as="geometry" />
        </mxCell>
        <mxCell id="Mn6TFEwCehOoePPqHeMJ-98" value="Rsp&lt;div&gt;&lt;br&gt;&lt;/div&gt;" style="text;html=1;align=center;verticalAlign=middle;resizable=0;points=[];autosize=1;strokeColor=none;fillColor=none;fontSize=16;labelBackgroundColor=none;" vertex="1" parent="1">
          <mxGeometry x="1535" y="697.5" width="50" height="50" as="geometry" />
        </mxCell>
        <mxCell id="Mn6TFEwCehOoePPqHeMJ-100" style="edgeStyle=none;rounded=0;orthogonalLoop=1;jettySize=auto;html=1;entryX=0.125;entryY=0.321;entryDx=0;entryDy=0;entryPerimeter=0;fontSize=16;labelBackgroundColor=none;" edge="1" parent="1" source="Mn6TFEwCehOoePPqHeMJ-93" target="Mn6TFEwCehOoePPqHeMJ-98">
          <mxGeometry relative="1" as="geometry" />
        </mxCell>
        <mxCell id="Mn6TFEwCehOoePPqHeMJ-101" value="" style="endArrow=none;dashed=1;html=1;dashPattern=1 3;strokeWidth=2;rounded=0;entryX=0.039;entryY=0.514;entryDx=0;entryDy=0;entryPerimeter=0;exitX=1;exitY=0.5;exitDx=0;exitDy=0;fontSize=16;labelBackgroundColor=none;" edge="1" parent="1" source="Mn6TFEwCehOoePPqHeMJ-68" target="Mn6TFEwCehOoePPqHeMJ-93">
          <mxGeometry width="50" height="50" relative="1" as="geometry">
            <mxPoint x="1310" y="650" as="sourcePoint" />
            <mxPoint x="1360" y="600" as="targetPoint" />
          </mxGeometry>
        </mxCell>
        <mxCell id="Mn6TFEwCehOoePPqHeMJ-102" value="" style="endArrow=classic;startArrow=classic;html=1;rounded=0;entryX=0.642;entryY=-0.029;entryDx=0;entryDy=0;entryPerimeter=0;exitX=0.576;exitY=0.111;exitDx=0;exitDy=0;exitPerimeter=0;fontSize=16;labelBackgroundColor=none;" edge="1" parent="1" source="Mn6TFEwCehOoePPqHeMJ-3" target="Mn6TFEwCehOoePPqHeMJ-98">
          <mxGeometry width="50" height="50" relative="1" as="geometry">
            <mxPoint x="860" y="290" as="sourcePoint" />
            <mxPoint x="1360" y="600" as="targetPoint" />
            <Array as="points">
              <mxPoint x="856" y="250" />
              <mxPoint x="1020" y="250" />
              <mxPoint x="1200" y="250" />
              <mxPoint x="1380" y="250" />
              <mxPoint x="1560" y="250" />
            </Array>
          </mxGeometry>
        </mxCell>
        <mxCell id="Mn6TFEwCehOoePPqHeMJ-103" value="Anchor State" style="text;html=1;align=center;verticalAlign=middle;resizable=0;points=[];autosize=1;strokeColor=none;fillColor=none;fontSize=16;labelBackgroundColor=none;" vertex="1" parent="1">
          <mxGeometry x="1136" y="210" width="120" height="30" as="geometry" />
        </mxCell>
        <mxCell id="Mn6TFEwCehOoePPqHeMJ-106" style="edgeStyle=none;rounded=0;orthogonalLoop=1;jettySize=auto;html=1;entryX=1.008;entryY=0.228;entryDx=0;entryDy=0;entryPerimeter=0;fontSize=16;labelBackgroundColor=none;" edge="1" parent="1" source="Mn6TFEwCehOoePPqHeMJ-25" target="Mn6TFEwCehOoePPqHeMJ-1">
          <mxGeometry relative="1" as="geometry" />
        </mxCell>
        <mxCell id="Mn6TFEwCehOoePPqHeMJ-108" style="edgeStyle=none;rounded=0;orthogonalLoop=1;jettySize=auto;html=1;entryX=1.008;entryY=0.423;entryDx=0;entryDy=0;entryPerimeter=0;fontSize=16;labelBackgroundColor=none;" edge="1" parent="1" source="Mn6TFEwCehOoePPqHeMJ-16" target="Mn6TFEwCehOoePPqHeMJ-1">
          <mxGeometry relative="1" as="geometry" />
        </mxCell>
        <mxCell id="Mn6TFEwCehOoePPqHeMJ-124" style="edgeStyle=none;rounded=0;orthogonalLoop=1;jettySize=auto;html=1;entryX=0.5;entryY=0;entryDx=0;entryDy=0;fontSize=16;" edge="1" parent="1" source="Mn6TFEwCehOoePPqHeMJ-109" target="Mn6TFEwCehOoePPqHeMJ-12">
          <mxGeometry relative="1" as="geometry" />
        </mxCell>
        <mxCell id="Mn6TFEwCehOoePPqHeMJ-109" value="Live Renderer" style="text;html=1;align=center;verticalAlign=middle;rounded=0;fontSize=16;labelBackgroundColor=none;whiteSpace=wrap;" vertex="1" parent="1">
          <mxGeometry x="987.5" y="560" width="135" height="30" as="geometry" />
        </mxCell>
        <mxCell id="Mn6TFEwCehOoePPqHeMJ-111" value="Local Store" style="html=1;aspect=fixed;fontSize=16;labelBackgroundColor=none;whiteSpace=wrap;dashed=1;strokeWidth=1;" vertex="1" parent="1">
          <mxGeometry x="950" y="405" width="95" height="95" as="geometry" />
        </mxCell>
        <mxCell id="Mn6TFEwCehOoePPqHeMJ-113" value="" style="rounded=0;html=1;dashed=1;noLabel=0;fillColor=none;fontSize=16;labelBackgroundColor=none;whiteSpace=wrap;strokeWidth=1;" vertex="1" parent="1">
          <mxGeometry x="1097.5" y="300" width="250" height="90" as="geometry" />
        </mxCell>
        <mxCell id="Mn6TFEwCehOoePPqHeMJ-121" value="" style="endArrow=classic;startArrow=classic;html=1;rounded=0;entryX=1;entryY=0.5;entryDx=0;entryDy=0;exitX=0.572;exitY=0.003;exitDx=0;exitDy=0;exitPerimeter=0;fontSize=16;labelBackgroundColor=none;" edge="1" parent="1" source="Mn6TFEwCehOoePPqHeMJ-93" target="Mn6TFEwCehOoePPqHeMJ-50">
          <mxGeometry width="50" height="50" relative="1" as="geometry">
            <mxPoint x="1090" y="740" as="sourcePoint" />
            <mxPoint x="1140" y="690" as="targetPoint" />
            <Array as="points">
              <mxPoint x="1434" y="478" />
            </Array>
          </mxGeometry>
        </mxCell>
        <mxCell id="Mn6TFEwCehOoePPqHeMJ-122" value="Anchor State" style="text;html=1;align=center;verticalAlign=middle;resizable=0;points=[];autosize=1;strokeColor=none;fillColor=none;fontSize=16;labelBackgroundColor=none;" vertex="1" parent="1">
          <mxGeometry x="1350" y="445" width="120" height="30" as="geometry" />
        </mxCell>
        <mxCell id="Mn6TFEwCehOoePPqHeMJ-123" value="Invoke" style="text;html=1;align=center;verticalAlign=middle;resizable=0;points=[];autosize=1;strokeColor=none;fillColor=none;fontSize=16;labelBackgroundColor=none;" vertex="1" parent="1">
          <mxGeometry x="1435" y="640" width="70" height="30" as="geometry" />
        </mxCell>
        <mxCell id="Mn6TFEwCehOoePPqHeMJ-125" value="Preload" style="text;html=1;align=center;verticalAlign=middle;whiteSpace=wrap;rounded=0;fontSize=16;" vertex="1" parent="1">
          <mxGeometry x="1070" y="600" width="60" height="30" as="geometry" />
        </mxCell>
      </root>
    </mxGraphModel>
  </diagram>
</mxfile>
